<svg xmlns="http://www.w3.org/2000/svg" viewBox="0 0 60 60" xml:space="preserve">
  <path d="M38.2 21.6c4.6 4.6 4.6 12.1 0 16.8s-12.1 4.6-16.8 0-4.6-12.1 0-16.8 12.2-4.6 16.8 0zm16.6 4.9c-2 0-3.6 1.6-3.6 3.6s1.6 3.6 3.6 3.6 3.6-1.6 3.6-3.6c-.1-2-1.7-3.6-3.6-3.6zM17.4 48c-2 0-3.6 1.6-3.6 3.6s1.6 3.6 3.6 3.6 3.6-1.6 3.6-3.6-1.6-3.6-3.6-3.6zm0-36c2 0 3.6-1.6 3.6-3.6s-1.6-3.6-3.6-3.6-3.6 1.6-3.6 3.6c.1 2 1.6 3.6 3.6 3.6z" fill="#ffcd05"/>
  <path d="M24.8 25c2.8-2.8 7.3-2.8 10.1 0s2.8 7.3 0 10.1-7.3 2.8-10.1 0-2.7-7.3 0-10.1z" fill="#fff"/>
  <path d="M29.9 43.3c-3.6 0-6.9-1.4-9.4-3.9-5.2-5.2-5.2-13.6 0-18.8 2.5-2.5 5.8-3.9 9.4-3.9s6.9 1.4 9.4 3.9c5.2 5.2 5.2 13.6 0 18.8-2.6 2.5-5.9 3.9-9.4 3.9zm0-23.7c-2.8 0-5.4 1.1-7.4 3-4.1 4.1-4.1 10.7 0 14.7 2 2 4.6 3.1 7.4 3.1s5.4-1.1 7.4-3c4.1-4.1 4.1-10.7 0-14.7-2-2-4.6-3.1-7.4-3.1zm28.4 6.9c-1.9-1.9-5.1-1.9-7 0-.6.6-1 1.3-1.2 2.1h-3.6c-.8 0-1.4.6-1.4 1.4 0 .8.6 1.4 1.4 1.4H50c.2.8.7 1.5 1.2 2.1.9.9 2.2 1.5 3.5 1.5s2.6-.5 3.5-1.5c2-1.9 2-5 .1-7zm-2 5c-.9.9-2.2.9-3 0-.9-.9-.9-2.2 0-3 .9-.9 2.2-.9 3 0 .8.9.8 2.2 0 3zM43.6 46.8c-.8-.2-1.7-.2-2.5 0l-1.8-3c-.4-.7-1.3-.9-1.9-.5-.7.4-.9 1.3-.5 1.9l1.8 3c-.6.6-1 1.3-1.2 2.1-.7 2.7.9 5.4 3.5 6.1.4.1.9.2 1.3.2.9 0 1.7-.2 2.5-.7 1.1-.7 2-1.8 2.3-3 .7-2.7-.8-5.4-3.5-6.1zm.8 5.3c-.1.6-.5 1-1 1.3-.5.3-1.1.4-1.6.2-.6-.1-1-.5-1.3-1s-.4-1.1-.2-1.6c.1-.6.5-1 1-1.3.5-.3 1.1-.4 1.6-.2 1.1.3 1.8 1.5 1.5 2.6zM21 11.9c.6-.6 1-1.3 1.2-2.1.7-2.7-.9-5.4-3.5-6.1-1.3-.3-2.6-.2-3.8.5-1.1.7-2 1.8-2.3 3-.7 2.7.9 5.4 3.5 6.1.4.1.9.2 1.3.2s.8 0 1.1-.1l1.8 3c.3.5.8.7 1.2.7.2 0 .5 0 .7-.2.7-.4.9-1.3.5-1.9L21 11.9zm-4.1-1.4c-1.1-.3-1.8-1.5-1.5-2.6.1-.6.5-1 1-1.3.5-.3 1.1-.4 1.6-.2.6.1 1 .5 1.3 1s.4 1.1.2 1.6c-.1.6-.5 1-1 1.3-.5.3-1.1.4-1.6.2zm-3.6 20.9c.8 0 1.4-.6 1.4-1.4 0-.8-.6-1.4-1.4-1.4H9.8c-.2-.8-.7-1.5-1.2-2.1-1.9-1.9-5.1-1.9-7 0-2 1.9-2 5.1 0 7 .9.9 2.2 1.5 3.5 1.5 1.3 0 2.6-.5 3.5-1.5.6-.6 1-1.3 1.2-2.1h3.5zm-6.8.1c-.9.9-2.2.9-3 0-.9-.9-.9-2.2 0-3 .9-.9 2.2-.9 3 0 .8.9.8 2.2 0 3zm31-14.6c.2.1.5.2.7.2.5 0 .9-.2 1.2-.7l1.8-3c.4.1.8.1 1.1.1.4 0 .9 0 1.3-.2 2.7-.7 4.2-3.5 3.5-6.1-.3-1.3-1.2-2.4-2.3-3s-2.5-.9-3.8-.5c-2.7.7-4.2 3.5-3.5 6.1.2.8.6 1.5 1.2 2.1l-1.8 3c-.3.7-.1 1.6.6 2zm3-9.5c.3-.5.8-.9 1.3-1 .2 0 .4-.1.6-.1.4 0 .7.1 1 .3.5.3.9.8 1 1.3.3 1.1-.4 2.3-1.5 2.6-.5.2-1.1.1-1.6-.2-.5-.3-.9-.8-1-1.3-.2-.5-.1-1.1.2-1.6zM22.3 43.2c-.7-.4-1.6-.1-1.9.5l-1.8 3c-.8-.2-1.6-.2-2.5 0-2.7.7-4.2 3.5-3.5 6.1.3 1.3 1.2 2.4 2.3 3 .8.4 1.6.7 2.5.7.4 0 .9 0 1.3-.2 2.7-.7 4.2-3.5 3.5-6.1-.2-.8-.6-1.5-1.2-2.1l1.8-3c.4-.7.1-1.6-.5-1.9zm-3.1 9.4c-.3.5-.8.9-1.3 1-.6.1-1.1.1-1.6-.2s-.9-.8-1-1.3c-.3-1.1.4-2.3 1.5-2.6.2 0 .4-.1.6-.1.4 0 .7.1 1 .3.5.3.9.8 1 1.3.2.6.1 1.2-.2 1.6z" fill="#444b54"/>
</svg>
