<svg xmlns="http://www.w3.org/2000/svg" viewBox="0 0 60 60" xml:space="preserve">
  <path d="M58.4 50.4v-31l-20.8 2.1c-17.5 1.8-30.9 11.3-30.9 29h51.7z" fill="#ffcd05"/>
  <path d="m32 33.7-3.2-.8c-1-.3-1.6-1.1-1.6-2.1 0-1.2 1-2.2 2.2-2.2H31c1.1 0 2 .9 2 2 0 .9.7 1.6 1.6 1.6s1.6-.7 1.6-1.6c0-2.6-1.9-4.7-4.4-5v-.7c0-.9-.7-1.6-1.6-1.6s-1.6.7-1.6 1.6v.7c-2.5.4-4.4 2.6-4.4 5.2 0 2.4 1.7 4.5 4 5.1l3.2.8c1 .3 1.6 1.1 1.6 2.1 0 1.2-1 2.2-2.2 2.2h-1.6c-1.1 0-2-.9-2-2 0-.9-.7-1.6-1.6-1.6S24 38.1 24 39c0 2.6 1.9 4.7 4.4 5v.7c0 .9.7 1.6 1.6 1.6s1.6-.7 1.6-1.6V44c2.5-.4 4.4-2.6 4.4-5.2-.1-2.5-1.7-4.6-4-5.1z" fill="#fff"/>
  <path d="M58.4 52H1.5c-.9 0-1.6-.7-1.6-1.6v-31c0-.9.7-1.6 1.6-1.6h56.9c.9 0 1.6.7 1.6 1.6v31c0 .9-.7 1.6-1.6 1.6zM3.1 48.9h53.8v-28H3.1v28zm55.3-32.6c-19.1 0-33-1.8-50.2-4.9v3.3c0 .9-.7 1.6-1.6 1.6S5 15.6 5 14.7V9.6c0-.5.2-.9.6-1.2s.8-.4 1.3-.3l.5.1c17.6 3.2 31.6 5 50.9 5 .9 0 1.6.7 1.6 1.6s-.6 1.5-1.5 1.5z" fill="#454b54"/>
</svg>
