<svg xmlns="http://www.w3.org/2000/svg" viewBox="0 0 60 60" xml:space="preserve">
  <path d="M11.6 19.1H4.5c-2.5 0-4.5 2-4.5 4.5v9.8c0 1.7 1.2 3 2.7 3.4v14.4c0 1.5 1.2 2.7 2.7 2.7h5.4c1.5 0 2.7-1.2 2.7-2.7V37h2.7V23.6c-.1-2.4-2.2-4.5-4.6-4.5zM8 7.6c-2.5 0-4.5 2-4.5 4.5s2 4.5 4.5 4.5 4.5-2 4.5-4.5-2-4.5-4.5-4.5zm47.3 11.6h-7.1c-2.5 0-4.5 2-4.5 4.5v9.8c0 1.7 1.2 3 2.7 3.4v14.3c0 1.5 1.1 2.8 2.6 2.8h5.5c1.5 0 2.6-1.3 2.6-2.8V37.1c1.5 0 2.7-1.2 2.7-2.7V23.7c0-2.5-2-4.5-4.5-4.5zM51.8 7.6c-2.5 0-4.5 2-4.5 4.5s2 4.5 4.5 4.5 4.5-2 4.5-4.5-2.1-4.5-4.5-4.5z" fill="#ffcd05"/>
  <path d="M39.3 23.7v13.4c0 .8-.6 1.3-1.3 1.3h-1.3v12.9c0 2.2-1.8 4-4 4-1 0-2-.4-2.7-1-.7.6-1.6 1-2.7 1-2.2 0-4-1.8-4-4V39.7c0-.8.6-1.3 1.3-1.3.8 0 1.3.6 1.3 1.3v11.6c0 .8.6 1.3 1.3 1.3s1.3-.6 1.3-1.3V37.1c0-.8.6-1.3 1.3-1.3.8 0 1.3.6 1.3 1.3v14.3c0 .8.6 1.3 1.3 1.3s1.3-.6 1.3-1.3V37.1c0-.8.6-1.3 1.3-1.3h1.3v-12c0-1.7-1.4-3.1-3.1-3.1h-7.1c-1.7 0-3.1 1.4-3.1 3.1v13.4c0 .8-.6 1.3-1.3 1.3s-1.3-.6-1.3-1.3V23.7c0-3.2 2.6-5.8 5.8-5.8h7.1c3.4 0 6 2.6 6 5.8zM24.1 10.3c0-3.2 2.6-5.8 5.8-5.8s5.8 2.6 5.8 5.8-2.6 5.8-5.8 5.8-5.8-2.6-5.8-5.8zm2.7 0c0 1.7 1.4 3.1 3.1 3.1 1.7 0 3.1-1.4 3.1-3.1s-1.4-3.1-3.1-3.1c-1.7 0-3.1 1.4-3.1 3.1z" fill="#444b54"/>
</svg>
