<svg xmlns="http://www.w3.org/2000/svg" viewBox="0 0 60 60" xml:space="preserve">
  <path fill="#fff" d="M32.1 2h15.3v13.2H32.1z"/>
  <path d="m52.5 13.7 5 6.6H38.7V7.1h18.8l-5 6.6zM1.7 57.9h39.7l-19-20.3L1.7 57.9z" fill="#ffcd05"/>
  <path d="M42.3 56.9c.5.7.4 1.6-.3 2.1-.3.2-.6.3-.9.3-.5 0-.9-.2-1.2-.6L22.5 40 3 58.7c-.5.7-1.5.8-2.1.3-.7-.5-.8-1.5-.3-2.1l20.7-20.3c.3-.4.8-.6 1.2-.6.5 0 .9.2 1.2.6l18.6 20.3zm.4-14.6s0-.1 0 0l-9.1-9.9V3.5h12.2v10.1h-8.7c-.9 0-1.5.7-1.5 1.5s.7 1.5 1.5 1.5h10.2c.9 0 1.5-.7 1.5-1.5V2c0-.9-.7-1.5-1.5-1.5H32c-.9 0-1.5.7-1.5 1.5v29.8l-1.8 2.4c-.5.7-.4 1.7.4 2.1.7.5 1.7.3 2.1-.4l.6-.9 6.2 6.5 15.7 16.9c.3.4.8.6 1.2.6.4 0 .7-.1.9-.3.7-.5.8-1.5.3-2.1L42.7 42.3zm11.7-28.6L58.8 8c.4-.5.4-1.1.2-1.6-.3-.6-.8-.9-1.4-.9h-5.1c-.9 0-1.5.7-1.5 1.5s.7 1.5 1.5 1.5h2l-3.2 4.2c-.4.6-.4 1.3 0 1.9l3.2 4.2H39.8c-.9 0-1.5.7-1.5 1.5s.7 1.5 1.5 1.5h17.7c.6 0 1.1-.3 1.3-.8.3-.6.2-1.2-.2-1.6l-4.2-5.7z" fill="#454b54"/>
</svg>
